<svg width="326" height="161" viewBox="0 0 326 161" fill="none" xmlns="http://www.w3.org/2000/svg">
<rect x="198" y="82" width="94" height="39" fill="#587E0A"/>
<rect x="133" y="41" width="65" height="41" fill="#587E0A"/>
<path d="M159.34 47.8V63.1L146.812 47.8H141.988V73H147.748V57.7L160.312 73H165.1V47.8H159.34ZM179.882 73.288C186.038 73.288 190.502 69.148 190.502 63.316C190.502 57.484 186.038 53.344 179.882 53.344C173.726 53.344 169.226 57.484 169.226 63.316C169.226 69.148 173.726 73.288 179.882 73.288ZM179.882 68.68C177.074 68.68 174.914 66.664 174.914 63.316C174.914 59.968 177.074 57.952 179.882 57.952C182.69 57.952 184.814 59.968 184.814 63.316C184.814 66.664 182.69 68.68 179.882 68.68ZM215.755 47.8H204.847V73H210.679V66.052H215.755C222.487 66.052 226.699 62.56 226.699 56.944C226.699 51.292 222.487 47.8 215.755 47.8ZM215.431 61.3H210.679V52.552H215.431C218.995 52.552 220.795 54.172 220.795 56.944C220.795 59.68 218.995 61.3 215.431 61.3ZM230.819 73H236.435V46.288H230.819V73ZM249.459 53.344C246.363 53.344 243.231 54.172 241.107 55.684L243.123 59.608C244.527 58.492 246.651 57.808 248.703 57.808C251.727 57.808 253.167 59.212 253.167 61.624H248.703C242.799 61.624 240.387 64 240.387 67.42C240.387 70.768 243.087 73.288 247.623 73.288C250.467 73.288 252.483 72.352 253.527 70.588V73H258.783V61.948C258.783 56.08 255.363 53.344 249.459 53.344ZM249.027 69.508C247.047 69.508 245.859 68.572 245.859 67.168C245.859 65.872 246.687 64.9 249.315 64.9H253.167V66.88C252.519 68.644 250.899 69.508 249.027 69.508ZM277.338 53.632L271.866 66.772L266.43 53.632H260.634L269.022 73.144L268.95 73.324C268.194 75.052 267.33 75.736 265.782 75.736C264.666 75.736 263.478 75.268 262.614 74.512L260.562 78.508C261.822 79.624 263.982 80.272 265.962 80.272C269.454 80.272 272.118 78.868 273.99 74.188L282.738 53.632H277.338ZM159.34 90.8V106.1L146.812 90.8H141.988V116H147.748V100.7L160.312 116H165.1V90.8H159.34ZM179.882 116.288C186.038 116.288 190.502 112.148 190.502 106.316C190.502 100.484 186.038 96.344 179.882 96.344C173.726 96.344 169.226 100.484 169.226 106.316C169.226 112.148 173.726 116.288 179.882 116.288ZM179.882 111.68C177.074 111.68 174.914 109.664 174.914 106.316C174.914 102.968 177.074 100.952 179.882 100.952C182.69 100.952 184.814 102.968 184.814 106.316C184.814 109.664 182.69 111.68 179.882 111.68ZM221.875 110.384C220.399 111.176 218.923 111.464 217.339 111.464C212.515 111.464 209.167 108.116 209.167 103.4C209.167 98.612 212.515 95.336 217.411 95.336C219.967 95.336 222.091 96.236 223.927 98.18L227.671 94.724C225.223 91.88 221.551 90.368 217.123 90.368C209.095 90.368 203.263 95.804 203.263 103.4C203.263 110.996 209.095 116.432 217.015 116.432C220.615 116.432 224.431 115.316 227.203 113.228V103.004H221.875V110.384ZM240.037 96.344C236.941 96.344 233.809 97.172 231.685 98.684L233.701 102.608C235.105 101.492 237.229 100.808 239.281 100.808C242.305 100.808 243.745 102.212 243.745 104.624H239.281C233.377 104.624 230.965 107 230.965 110.42C230.965 113.768 233.665 116.288 238.201 116.288C241.045 116.288 243.061 115.352 244.105 113.588V116H249.361V104.948C249.361 99.08 245.941 96.344 240.037 96.344ZM239.605 112.508C237.625 112.508 236.437 111.572 236.437 110.168C236.437 108.872 237.265 107.9 239.893 107.9H243.745V109.88C243.097 111.644 241.477 112.508 239.605 112.508ZM257.252 93.932C259.34 93.932 260.744 92.564 260.744 90.692C260.744 88.964 259.34 87.668 257.252 87.668C255.164 87.668 253.76 89.036 253.76 90.8C253.76 92.564 255.164 93.932 257.252 93.932ZM254.444 116H260.06V96.632H254.444V116ZM277.044 96.344C274.416 96.344 272.148 97.244 270.636 98.9V96.632H265.272V116H270.888V106.424C270.888 102.86 272.832 101.204 275.532 101.204C278.016 101.204 279.456 102.644 279.456 105.776V116H285.072V104.912C285.072 99.008 281.616 96.344 277.044 96.344Z" fill="white"/>
<line x1="101" y1="125.455" x2="326" y2="125.455" stroke="white" stroke-width="0.25"/>
<path d="M106.08 144.58L106.066 138.7L103.182 143.544H102.16L99.29 138.826V144.58H97.162V134.78H99.038L102.706 140.87L106.318 134.78H108.18L108.208 144.58H106.08ZM113.417 136.936C114.584 136.936 115.48 137.216 116.105 137.776C116.73 138.327 117.043 139.162 117.043 140.282V144.58H114.999V143.642C114.588 144.342 113.823 144.692 112.703 144.692C112.124 144.692 111.62 144.594 111.191 144.398C110.771 144.202 110.449 143.932 110.225 143.586C110.001 143.241 109.889 142.849 109.889 142.41C109.889 141.71 110.15 141.16 110.673 140.758C111.205 140.357 112.022 140.156 113.123 140.156H114.859C114.859 139.68 114.714 139.316 114.425 139.064C114.136 138.803 113.702 138.672 113.123 138.672C112.722 138.672 112.325 138.738 111.933 138.868C111.55 138.99 111.224 139.158 110.953 139.372L110.169 137.846C110.58 137.557 111.07 137.333 111.639 137.174C112.218 137.016 112.81 136.936 113.417 136.936ZM113.249 143.222C113.622 143.222 113.954 143.138 114.243 142.97C114.532 142.793 114.738 142.536 114.859 142.2V141.43H113.361C112.465 141.43 112.017 141.724 112.017 142.312C112.017 142.592 112.124 142.816 112.339 142.984C112.563 143.143 112.866 143.222 113.249 143.222ZM123.808 144.58L122.156 142.27L120.448 144.58H118.068L120.966 140.786L118.166 137.048H120.616L122.212 139.246L123.85 137.048H126.174L123.374 140.73L126.286 144.58H123.808ZM127.346 137.048H129.53V144.58H127.346V137.048ZM128.438 135.998C128.037 135.998 127.71 135.882 127.458 135.648C127.206 135.415 127.08 135.126 127.08 134.78C127.08 134.435 127.206 134.146 127.458 133.912C127.71 133.679 128.037 133.562 128.438 133.562C128.839 133.562 129.166 133.674 129.418 133.898C129.67 134.122 129.796 134.402 129.796 134.738C129.796 135.102 129.67 135.406 129.418 135.648C129.166 135.882 128.839 135.998 128.438 135.998ZM141.203 136.936C142.145 136.936 142.892 137.216 143.443 137.776C144.003 138.327 144.283 139.158 144.283 140.268V144.58H142.099V140.604C142.099 140.007 141.973 139.564 141.721 139.274C141.478 138.976 141.128 138.826 140.671 138.826C140.157 138.826 139.751 138.994 139.453 139.33C139.154 139.657 139.005 140.147 139.005 140.8V144.58H136.821V140.604C136.821 139.419 136.345 138.826 135.393 138.826C134.889 138.826 134.487 138.994 134.189 139.33C133.89 139.657 133.741 140.147 133.741 140.8V144.58H131.557V137.048H133.643V137.916C133.923 137.599 134.263 137.356 134.665 137.188C135.075 137.02 135.523 136.936 136.009 136.936C136.541 136.936 137.021 137.044 137.451 137.258C137.88 137.464 138.225 137.767 138.487 138.168C138.795 137.776 139.182 137.473 139.649 137.258C140.125 137.044 140.643 136.936 141.203 136.936ZM146.24 137.048H148.424V144.58H146.24V137.048ZM147.332 135.998C146.931 135.998 146.604 135.882 146.352 135.648C146.1 135.415 145.974 135.126 145.974 134.78C145.974 134.435 146.1 134.146 146.352 133.912C146.604 133.679 146.931 133.562 147.332 133.562C147.734 133.562 148.06 133.674 148.312 133.898C148.564 134.122 148.69 134.402 148.69 134.738C148.69 135.102 148.564 135.406 148.312 135.648C148.06 135.882 147.734 135.998 147.332 135.998ZM156.653 142.9V144.58H149.933V143.264L153.769 138.728H150.031V137.048H156.527V138.364L152.691 142.9H156.653ZM161.091 136.936C162.258 136.936 163.154 137.216 163.779 137.776C164.404 138.327 164.717 139.162 164.717 140.282V144.58H162.673V143.642C162.262 144.342 161.497 144.692 160.377 144.692C159.798 144.692 159.294 144.594 158.865 144.398C158.445 144.202 158.123 143.932 157.899 143.586C157.675 143.241 157.563 142.849 157.563 142.41C157.563 141.71 157.824 141.16 158.347 140.758C158.879 140.357 159.696 140.156 160.797 140.156H162.533C162.533 139.68 162.388 139.316 162.099 139.064C161.81 138.803 161.376 138.672 160.797 138.672C160.396 138.672 159.999 138.738 159.607 138.868C159.224 138.99 158.898 139.158 158.627 139.372L157.843 137.846C158.254 137.557 158.744 137.333 159.313 137.174C159.892 137.016 160.484 136.936 161.091 136.936ZM160.923 143.222C161.296 143.222 161.628 143.138 161.917 142.97C162.206 142.793 162.412 142.536 162.533 142.2V141.43H161.035C160.139 141.43 159.691 141.724 159.691 142.312C159.691 142.592 159.798 142.816 160.013 142.984C160.237 143.143 160.54 143.222 160.923 143.222ZM171.272 136.936C172.205 136.936 172.956 137.216 173.526 137.776C174.104 138.336 174.394 139.167 174.394 140.268V144.58H172.21V140.604C172.21 140.007 172.079 139.564 171.818 139.274C171.556 138.976 171.178 138.826 170.684 138.826C170.133 138.826 169.694 138.999 169.368 139.344C169.041 139.68 168.878 140.184 168.878 140.856V144.58H166.694V137.048H168.78V137.93C169.069 137.613 169.428 137.37 169.858 137.202C170.287 137.025 170.758 136.936 171.272 136.936ZM184.127 134.192V144.58H182.041V143.712C181.5 144.366 180.716 144.692 179.689 144.692C178.98 144.692 178.336 144.534 177.757 144.216C177.188 143.899 176.74 143.446 176.413 142.858C176.087 142.27 175.923 141.589 175.923 140.814C175.923 140.04 176.087 139.358 176.413 138.77C176.74 138.182 177.188 137.73 177.757 137.412C178.336 137.095 178.98 136.936 179.689 136.936C180.651 136.936 181.402 137.24 181.943 137.846V134.192H184.127ZM180.067 142.9C180.618 142.9 181.075 142.714 181.439 142.34C181.803 141.958 181.985 141.449 181.985 140.814C181.985 140.18 181.803 139.676 181.439 139.302C181.075 138.92 180.618 138.728 180.067 138.728C179.507 138.728 179.045 138.92 178.681 139.302C178.317 139.676 178.135 140.18 178.135 140.814C178.135 141.449 178.317 141.958 178.681 142.34C179.045 142.714 179.507 142.9 180.067 142.9ZM189.733 144.692C188.939 144.692 188.225 144.529 187.591 144.202C186.965 143.866 186.475 143.404 186.121 142.816C185.766 142.228 185.589 141.561 185.589 140.814C185.589 140.068 185.766 139.4 186.121 138.812C186.475 138.224 186.965 137.767 187.591 137.44C188.225 137.104 188.939 136.936 189.733 136.936C190.526 136.936 191.235 137.104 191.861 137.44C192.486 137.767 192.976 138.224 193.331 138.812C193.685 139.4 193.863 140.068 193.863 140.814C193.863 141.561 193.685 142.228 193.331 142.816C192.976 143.404 192.486 143.866 191.861 144.202C191.235 144.529 190.526 144.692 189.733 144.692ZM189.733 142.9C190.293 142.9 190.75 142.714 191.105 142.34C191.469 141.958 191.651 141.449 191.651 140.814C191.651 140.18 191.469 139.676 191.105 139.302C190.75 138.92 190.293 138.728 189.733 138.728C189.173 138.728 188.711 138.92 188.347 139.302C187.983 139.676 187.801 140.18 187.801 140.814C187.801 141.449 187.983 141.958 188.347 142.34C188.711 142.714 189.173 142.9 189.733 142.9ZM202.325 136.936C203.492 136.936 204.388 137.216 205.013 137.776C205.639 138.327 205.951 139.162 205.951 140.282V144.58H203.907V143.642C203.497 144.342 202.731 144.692 201.611 144.692C201.033 144.692 200.529 144.594 200.099 144.398C199.679 144.202 199.357 143.932 199.133 143.586C198.909 143.241 198.797 142.849 198.797 142.41C198.797 141.71 199.059 141.16 199.581 140.758C200.113 140.357 200.93 140.156 202.031 140.156H203.767C203.767 139.68 203.623 139.316 203.333 139.064C203.044 138.803 202.61 138.672 202.031 138.672C201.63 138.672 201.233 138.738 200.841 138.868C200.459 138.99 200.132 139.158 199.861 139.372L199.077 137.846C199.488 137.557 199.978 137.333 200.547 137.174C201.126 137.016 201.719 136.936 202.325 136.936ZM202.157 143.222C202.531 143.222 202.862 143.138 203.151 142.97C203.441 142.793 203.646 142.536 203.767 142.2V141.43H202.269C201.373 141.43 200.925 141.724 200.925 142.312C200.925 142.592 201.033 142.816 201.247 142.984C201.471 143.143 201.775 143.222 202.157 143.222ZM214.931 136.936C216.097 136.936 216.993 137.216 217.619 137.776C218.244 138.327 218.557 139.162 218.557 140.282V144.58H216.513V143.642C216.102 144.342 215.337 144.692 214.217 144.692C213.638 144.692 213.134 144.594 212.705 144.398C212.285 144.202 211.963 143.932 211.739 143.586C211.515 143.241 211.403 142.849 211.403 142.41C211.403 141.71 211.664 141.16 212.187 140.758C212.719 140.357 213.535 140.156 214.637 140.156H216.373C216.373 139.68 216.228 139.316 215.939 139.064C215.649 138.803 215.215 138.672 214.637 138.672C214.235 138.672 213.839 138.738 213.447 138.868C213.064 138.99 212.737 139.158 212.467 139.372L211.683 137.846C212.093 137.557 212.583 137.333 213.153 137.174C213.731 137.016 214.324 136.936 214.931 136.936ZM214.763 143.222C215.136 143.222 215.467 143.138 215.757 142.97C216.046 142.793 216.251 142.536 216.373 142.2V141.43H214.875C213.979 141.43 213.531 141.724 213.531 142.312C213.531 142.592 213.638 142.816 213.853 142.984C214.077 143.143 214.38 143.222 214.763 143.222ZM225.391 144.216C225.177 144.375 224.911 144.496 224.593 144.58C224.285 144.655 223.959 144.692 223.613 144.692C222.717 144.692 222.022 144.464 221.527 144.006C221.042 143.549 220.799 142.877 220.799 141.99V138.896H219.637V137.216H220.799V135.382H222.983V137.216H224.859V138.896H222.983V141.962C222.983 142.28 223.063 142.527 223.221 142.704C223.389 142.872 223.623 142.956 223.921 142.956C224.267 142.956 224.561 142.863 224.803 142.676L225.391 144.216ZM226.617 137.048H228.801V144.58H226.617V137.048ZM227.709 135.998C227.308 135.998 226.981 135.882 226.729 135.648C226.477 135.415 226.351 135.126 226.351 134.78C226.351 134.435 226.477 134.146 226.729 133.912C226.981 133.679 227.308 133.562 227.709 133.562C228.111 133.562 228.437 133.674 228.689 133.898C228.941 134.122 229.067 134.402 229.067 134.738C229.067 135.102 228.941 135.406 228.689 135.648C228.437 135.882 228.111 135.998 227.709 135.998ZM238.304 137.048L235.126 144.58H232.872L229.708 137.048H231.962L234.048 142.172L236.204 137.048H238.304ZM239.196 137.048H241.38V144.58H239.196V137.048ZM240.288 135.998C239.886 135.998 239.56 135.882 239.308 135.648C239.056 135.415 238.93 135.126 238.93 134.78C238.93 134.435 239.056 134.146 239.308 133.912C239.56 133.679 239.886 133.562 240.288 133.562C240.689 133.562 241.016 133.674 241.268 133.898C241.52 134.122 241.646 134.402 241.646 134.738C241.646 135.102 241.52 135.406 241.268 135.648C241.016 135.882 240.689 135.998 240.288 135.998ZM251.078 134.192V144.58H248.992V143.712C248.451 144.366 247.667 144.692 246.64 144.692C245.931 144.692 245.287 144.534 244.708 144.216C244.139 143.899 243.691 143.446 243.364 142.858C243.038 142.27 242.874 141.589 242.874 140.814C242.874 140.04 243.038 139.358 243.364 138.77C243.691 138.182 244.139 137.73 244.708 137.412C245.287 137.095 245.931 136.936 246.64 136.936C247.602 136.936 248.353 137.24 248.894 137.846V134.192H251.078ZM247.018 142.9C247.569 142.9 248.026 142.714 248.39 142.34C248.754 141.958 248.936 141.449 248.936 140.814C248.936 140.18 248.754 139.676 248.39 139.302C248.026 138.92 247.569 138.728 247.018 138.728C246.458 138.728 245.996 138.92 245.632 139.302C245.268 139.676 245.086 140.18 245.086 140.814C245.086 141.449 245.268 141.958 245.632 142.34C245.996 142.714 246.458 142.9 247.018 142.9ZM256.138 136.936C257.304 136.936 258.2 137.216 258.826 137.776C259.451 138.327 259.764 139.162 259.764 140.282V144.58H257.72V143.642C257.309 144.342 256.544 144.692 255.424 144.692C254.845 144.692 254.341 144.594 253.912 144.398C253.492 144.202 253.17 143.932 252.946 143.586C252.722 143.241 252.61 142.849 252.61 142.41C252.61 141.71 252.871 141.16 253.394 140.758C253.926 140.357 254.742 140.156 255.844 140.156H257.58C257.58 139.68 257.435 139.316 257.146 139.064C256.856 138.803 256.422 138.672 255.844 138.672C255.442 138.672 255.046 138.738 254.654 138.868C254.271 138.99 253.944 139.158 253.674 139.372L252.89 137.846C253.3 137.557 253.79 137.333 254.36 137.174C254.938 137.016 255.531 136.936 256.138 136.936ZM255.97 143.222C256.343 143.222 256.674 143.138 256.964 142.97C257.253 142.793 257.458 142.536 257.58 142.2V141.43H256.082C255.186 141.43 254.738 141.724 254.738 142.312C254.738 142.592 254.845 142.816 255.06 142.984C255.284 143.143 255.587 143.222 255.97 143.222ZM269.494 134.192V144.58H267.408V143.712C266.867 144.366 266.083 144.692 265.056 144.692C264.347 144.692 263.703 144.534 263.124 144.216C262.555 143.899 262.107 143.446 261.78 142.858C261.454 142.27 261.29 141.589 261.29 140.814C261.29 140.04 261.454 139.358 261.78 138.77C262.107 138.182 262.555 137.73 263.124 137.412C263.703 137.095 264.347 136.936 265.056 136.936C266.018 136.936 266.769 137.24 267.31 137.846V134.192H269.494ZM265.434 142.9C265.985 142.9 266.442 142.714 266.806 142.34C267.17 141.958 267.352 141.449 267.352 140.814C267.352 140.18 267.17 139.676 266.806 139.302C266.442 138.92 265.985 138.728 265.434 138.728C264.874 138.728 264.412 138.92 264.048 139.302C263.684 139.676 263.502 140.18 263.502 140.814C263.502 141.449 263.684 141.958 264.048 142.34C264.412 142.714 264.874 142.9 265.434 142.9ZM278.894 140.842C278.894 140.87 278.88 141.066 278.852 141.43H273.154C273.256 141.897 273.499 142.266 273.882 142.536C274.264 142.807 274.74 142.942 275.31 142.942C275.702 142.942 276.047 142.886 276.346 142.774C276.654 142.653 276.938 142.466 277.2 142.214L278.362 143.474C277.652 144.286 276.616 144.692 275.254 144.692C274.404 144.692 273.653 144.529 273 144.202C272.346 143.866 271.842 143.404 271.488 142.816C271.133 142.228 270.956 141.561 270.956 140.814C270.956 140.077 271.128 139.414 271.474 138.826C271.828 138.229 272.309 137.767 272.916 137.44C273.532 137.104 274.218 136.936 274.974 136.936C275.711 136.936 276.378 137.095 276.976 137.412C277.573 137.73 278.04 138.187 278.376 138.784C278.721 139.372 278.894 140.058 278.894 140.842ZM274.988 138.588C274.493 138.588 274.078 138.728 273.742 139.008C273.406 139.288 273.2 139.671 273.126 140.156H276.836C276.761 139.68 276.556 139.302 276.22 139.022C275.884 138.733 275.473 138.588 274.988 138.588ZM286.707 137.216H288.639V138.896H286.763V144.58H284.579V138.896H283.417V137.216H284.579V136.88C284.579 136.022 284.831 135.34 285.335 134.836C285.848 134.332 286.567 134.08 287.491 134.08C287.817 134.08 288.125 134.118 288.415 134.192C288.713 134.258 288.961 134.356 289.157 134.486L288.583 136.068C288.331 135.891 288.037 135.802 287.701 135.802C287.038 135.802 286.707 136.166 286.707 136.894V137.216ZM290.848 137.048H293.032V144.58H290.848V137.048ZM292.556 134.066H294.908L292.374 136.082H290.666L292.556 134.066ZM297.593 144.692C296.967 144.692 296.356 144.618 295.759 144.468C295.161 144.31 294.685 144.114 294.331 143.88L295.059 142.312C295.395 142.527 295.801 142.704 296.277 142.844C296.753 142.975 297.219 143.04 297.677 143.04C298.601 143.04 299.063 142.812 299.063 142.354C299.063 142.14 298.937 141.986 298.685 141.892C298.433 141.799 298.045 141.72 297.523 141.654C296.907 141.561 296.398 141.454 295.997 141.332C295.595 141.211 295.245 140.996 294.947 140.688C294.657 140.38 294.513 139.942 294.513 139.372C294.513 138.896 294.648 138.476 294.919 138.112C295.199 137.739 295.6 137.45 296.123 137.244C296.655 137.039 297.28 136.936 297.999 136.936C298.531 136.936 299.058 136.997 299.581 137.118C300.113 137.23 300.551 137.389 300.897 137.594L300.169 139.148C299.506 138.775 298.783 138.588 297.999 138.588C297.532 138.588 297.182 138.654 296.949 138.784C296.715 138.915 296.599 139.083 296.599 139.288C296.599 139.522 296.725 139.685 296.977 139.778C297.229 139.872 297.63 139.96 298.181 140.044C298.797 140.147 299.301 140.259 299.693 140.38C300.085 140.492 300.425 140.702 300.715 141.01C301.004 141.318 301.149 141.748 301.149 142.298C301.149 142.765 301.009 143.18 300.729 143.544C300.449 143.908 300.038 144.193 299.497 144.398C298.965 144.594 298.33 144.692 297.593 144.692ZM302.496 137.048H304.68V144.58H302.496V137.048ZM303.588 135.998C303.187 135.998 302.86 135.882 302.608 135.648C302.356 135.415 302.23 135.126 302.23 134.78C302.23 134.435 302.356 134.146 302.608 133.912C302.86 133.679 303.187 133.562 303.588 133.562C303.99 133.562 304.316 133.674 304.568 133.898C304.82 134.122 304.946 134.402 304.946 134.738C304.946 135.102 304.82 135.406 304.568 135.648C304.316 135.882 303.99 135.998 303.588 135.998ZM310.347 144.692C309.545 144.692 308.821 144.529 308.177 144.202C307.543 143.866 307.043 143.404 306.679 142.816C306.325 142.228 306.147 141.561 306.147 140.814C306.147 140.068 306.325 139.4 306.679 138.812C307.043 138.224 307.543 137.767 308.177 137.44C308.821 137.104 309.545 136.936 310.347 136.936C311.141 136.936 311.831 137.104 312.419 137.44C313.017 137.767 313.451 138.238 313.721 138.854L312.027 139.764C311.635 139.074 311.071 138.728 310.333 138.728C309.764 138.728 309.293 138.915 308.919 139.288C308.546 139.662 308.359 140.17 308.359 140.814C308.359 141.458 308.546 141.967 308.919 142.34C309.293 142.714 309.764 142.9 310.333 142.9C311.08 142.9 311.645 142.555 312.027 141.864L313.721 142.788C313.451 143.386 313.017 143.852 312.419 144.188C311.831 144.524 311.141 144.692 310.347 144.692ZM318.017 136.936C319.183 136.936 320.079 137.216 320.705 137.776C321.33 138.327 321.643 139.162 321.643 140.282V144.58H319.599V143.642C319.188 144.342 318.423 144.692 317.303 144.692C316.724 144.692 316.22 144.594 315.791 144.398C315.371 144.202 315.049 143.932 314.825 143.586C314.601 143.241 314.489 142.849 314.489 142.41C314.489 141.71 314.75 141.16 315.273 140.758C315.805 140.357 316.621 140.156 317.723 140.156H319.459C319.459 139.68 319.314 139.316 319.025 139.064C318.735 138.803 318.301 138.672 317.723 138.672C317.321 138.672 316.925 138.738 316.533 138.868C316.15 138.99 315.823 139.158 315.553 139.372L314.769 137.846C315.179 137.557 315.669 137.333 316.239 137.174C316.817 137.016 317.41 136.936 318.017 136.936ZM317.849 143.222C318.222 143.222 318.553 143.138 318.843 142.97C319.132 142.793 319.337 142.536 319.459 142.2V141.43H317.961C317.065 141.43 316.617 141.724 316.617 142.312C316.617 142.592 316.724 142.816 316.939 142.984C317.163 143.143 317.466 143.222 317.849 143.222Z" fill="white"/>
</svg>
